solid
facet normal 1.0 0.0 0.0
 outer loop
  vertex 17.24684895798808 0.242530726371886 0.0
  vertex 17.24684895798808 4.242530726371886 0.0
  vertex 17.24684895798808 0.242530726371886 3.0
 endloop
endfacet
facet normal -1.0 0.0 0.0
 outer loop
  vertex 17.24684895798808 4.242530726371886 0.0
  vertex 17.24684895798808 0.242530726371886 3.0
  vertex 17.24684895798808 4.242530726371886 3.0
 endloop
endfacet
facet normal 2.2130895758393243e-17 -1.0 0.0
 outer loop
  vertex 21.125 0.04253072637188591 0.0
  vertex 23.94684895798809 0.04253072637188597 0.0
  vertex 21.125 0.04253072637188591 2.4
 endloop
endfacet
facet normal 2.2130895758393243e-17 -1.0 0.0
 outer loop
  vertex 21.125 0.04253072637188591 2.4
  vertex 23.94684895798809 0.04253072637188597 0.0
  vertex 21.125 0.04253072637188591 3.0
 endloop
endfacet
facet normal 2.2130895758393246e-17 -1.0 0.0
 outer loop
  vertex 21.125 0.04253072637188591 3.0
  vertex 23.94684895798809 0.04253072637188597 0.0
  vertex 23.94684895798809 0.04253072637188597 3.0
 endloop
endfacet
facet normal 1.249000902703301e-16 1.0 -0.0
 outer loop
  vertex 21.125 0.04253072637188591 2.4
  vertex 20.125 0.042530726371886034 2.4
  vertex 21.125 0.04253072637188591 3.0
 endloop
endfacet
facet normal -1.249000902703301e-16 -1.0 0.0
 outer loop
  vertex 20.125 0.042530726371886034 2.4
  vertex 21.125 0.04253072637188591 3.0
  vertex 20.125 0.042530726371886034 3.0
 endloop
endfacet
facet normal 0.0 -1.0 0.0
 outer loop
  vertex 21.125 0.242530726371886 0.0
  vertex 23.746848957988092 0.242530726371886 0.0
  vertex 21.125 0.242530726371886 2.4
 endloop
endfacet
facet normal 0.0 -1.0 0.0
 outer loop
  vertex 21.125 0.242530726371886 2.4
  vertex 23.746848957988092 0.242530726371886 0.0
  vertex 21.125 0.242530726371886 3.0
 endloop
endfacet
facet normal 0.0 -1.0 0.0
 outer loop
  vertex 21.125 0.242530726371886 3.0
  vertex 23.746848957988092 0.242530726371886 0.0
  vertex 23.746848957988092 0.242530726371886 3.0
 endloop
endfacet
facet normal 0.0 1.0 -0.0
 outer loop
  vertex 21.125 0.242530726371886 2.4
  vertex 20.125 0.242530726371886 2.4
  vertex 21.125 0.242530726371886 3.0
 endloop
endfacet
facet normal 0.0 -1.0 0.0
 outer loop
  vertex 20.125 0.242530726371886 2.4
  vertex 21.125 0.242530726371886 3.0
  vertex 20.125 0.242530726371886 3.0
 endloop
endfacet
facet normal 0.0 1.0 -0.0
 outer loop
  vertex 20.125 0.242530726371886 0.0
  vertex 17.24684895798808 0.242530726371886 0.0
  vertex 20.125 0.242530726371886 2.4
 endloop
endfacet
facet normal 0.0 1.0 -0.0
 outer loop
  vertex 20.125 0.242530726371886 2.4
  vertex 17.24684895798808 0.242530726371886 0.0
  vertex 20.125 0.242530726371886 3.0
 endloop
endfacet
facet normal 0.0 1.0 0.0
 outer loop
  vertex 20.125 0.242530726371886 3.0
  vertex 17.24684895798808 0.242530726371886 0.0
  vertex 17.24684895798808 0.242530726371886 3.0
 endloop
endfacet
facet normal -2.0288167891315345e-17 1.0 0.0
 outer loop
  vertex 20.125 0.042530726371886034 0.0
  vertex 17.046848957988082 0.04253072637188597 0.0
  vertex 20.125 0.042530726371886034 3.0
 endloop
endfacet
facet normal 2.0288167891315345e-17 -1.0 0.0
 outer loop
  vertex 17.046848957988082 0.04253072637188597 0.0
  vertex 20.125 0.042530726371886034 3.0
  vertex 17.046848957988082 0.04253072637188597 3.0
 endloop
endfacet
facet normal 1.0 0.0 0.0
 outer loop
  vertex 17.046848957988082 0.04253072637188597 0.0
  vertex 17.046848957988082 4.442530726371886 0.0
  vertex 17.046848957988082 0.04253072637188597 3.0
 endloop
endfacet
facet normal -1.0 0.0 0.0
 outer loop
  vertex 17.046848957988082 4.442530726371886 0.0
  vertex 17.046848957988082 0.04253072637188597 3.0
  vertex 17.046848957988082 4.442530726371886 3.0
 endloop
endfacet
facet normal 1.0 0.0 0.0
 outer loop
  vertex 23.746848957988092 0.242530726371886 0.0
  vertex 23.746848957988092 1.242530726371886 0.0
  vertex 23.746848957988092 0.242530726371886 3.0
 endloop
endfacet
facet normal -1.0 0.0 0.0
 outer loop
  vertex 23.746848957988092 1.242530726371886 0.0
  vertex 23.746848957988092 0.242530726371886 3.0
  vertex 23.746848957988092 1.242530726371886 3.0
 endloop
endfacet
facet normal 1.0 0.0 0.0
 outer loop
  vertex 23.746848957988092 1.242530726371886 0.0
  vertex 23.746848957988092 1.342530726371886 0.0
  vertex 23.746848957988092 1.242530726371886 3.0
 endloop
endfacet
facet normal -1.0 0.0 0.0
 outer loop
  vertex 23.746848957988092 1.342530726371886 0.0
  vertex 23.746848957988092 1.242530726371886 3.0
  vertex 23.746848957988092 1.342530726371886 3.0
 endloop
endfacet
facet normal 1.0 0.0 0.0
 outer loop
  vertex 23.746848957988092 1.342530726371886 0.0
  vertex 23.746848957988092 2.242530726371886 0.0
  vertex 23.746848957988092 1.342530726371886 3.0
 endloop
endfacet
facet normal -1.0 0.0 0.0
 outer loop
  vertex 23.746848957988092 2.242530726371886 0.0
  vertex 23.746848957988092 1.342530726371886 3.0
  vertex 23.746848957988092 2.242530726371886 3.0
 endloop
endfacet
facet normal 1.0 0.0 0.0
 outer loop
  vertex 23.746848957988092 2.242530726371886 0.0
  vertex 23.746848957988092 3.842530726371887 0.0
  vertex 23.746848957988092 2.242530726371886 3.0
 endloop
endfacet
facet normal -1.0 0.0 0.0
 outer loop
  vertex 23.746848957988092 3.842530726371887 0.0
  vertex 23.746848957988092 2.242530726371886 3.0
  vertex 23.746848957988092 3.842530726371887 3.0
 endloop
endfacet
facet normal 0.9914448613738096 0.1305261922200581 -0.0
 outer loop
  vertex 23.7468489579881 3.842530726371885 0.0
  vertex 23.733219288503726 3.946058344412895 0.0
  vertex 23.7468489579881 3.842530726371885 3.0
 endloop
endfacet
facet normal -0.9914448613738096 -0.1305261922200581 0.0
 outer loop
  vertex 23.733219288503726 3.946058344412895 0.0
  vertex 23.7468489579881 3.842530726371885 3.0
  vertex 23.733219288503726 3.946058344412895 3.0
 endloop
endfacet
facet normal 0.9238795325112784 0.38268343236510993 -0.0
 outer loop
  vertex 23.733219288503726 3.946058344412895 0.0
  vertex 23.69325911950187 4.042530726371888 0.0
  vertex 23.733219288503726 3.946058344412895 3.0
 endloop
endfacet
facet normal -0.9238795325112784 -0.38268343236510993 0.0
 outer loop
  vertex 23.69325911950187 4.042530726371888 0.0
  vertex 23.733219288503726 3.946058344412895 3.0
  vertex 23.69325911950187 4.042530726371888 3.0
 endloop
endfacet
facet normal 0.7933533402912418 0.6087614290087119 -0.0
 outer loop
  vertex 23.69325911950187 4.042530726371888 0.0
  vertex 23.629691670462716 4.125373438846507 0.0
  vertex 23.69325911950187 4.042530726371888 3.0
 endloop
endfacet
facet normal -0.7933533402912418 -0.6087614290087119 0.0
 outer loop
  vertex 23.629691670462716 4.125373438846507 0.0
  vertex 23.69325911950187 4.042530726371888 3.0
  vertex 23.629691670462716 4.125373438846507 3.0
 endloop
endfacet
facet normal 0.6087614290087116 0.7933533402912422 -0.0
 outer loop
  vertex 23.629691670462716 4.125373438846507 0.0
  vertex 23.546848957988093 4.188940887885665 0.0
  vertex 23.629691670462716 4.125373438846507 3.0
 endloop
endfacet
facet normal -0.6087614290087116 -0.7933533402912422 0.0
 outer loop
  vertex 23.546848957988093 4.188940887885665 0.0
  vertex 23.629691670462716 4.125373438846507 3.0
  vertex 23.546848957988093 4.188940887885665 3.0
 endloop
endfacet
facet normal 0.3826834323650824 0.9238795325112898 -0.0
 outer loop
  vertex 23.546848957988093 4.188940887885665 0.0
  vertex 23.4503765760291 4.2289010568875165 0.0
  vertex 23.546848957988093 4.188940887885665 3.0
 endloop
endfacet
facet normal -0.3826834323650824 -0.9238795325112898 0.0
 outer loop
  vertex 23.4503765760291 4.2289010568875165 0.0
  vertex 23.546848957988093 4.188940887885665 3.0
  vertex 23.4503765760291 4.2289010568875165 3.0
 endloop
endfacet
facet normal 0.1305261922200286 0.9914448613738134 -0.0
 outer loop
  vertex 23.4503765760291 4.2289010568875165 0.0
  vertex 23.346848957988087 4.242530726371887 0.0
  vertex 23.4503765760291 4.2289010568875165 3.0
 endloop
endfacet
facet normal -0.1305261922200286 -0.9914448613738134 0.0
 outer loop
  vertex 23.346848957988087 4.242530726371887 0.0
  vertex 23.4503765760291 4.2289010568875165 3.0
  vertex 23.346848957988087 4.242530726371887 3.0
 endloop
endfacet
facet normal 4.792801016024318e-16 1.0 -0.0
 outer loop
  vertex 18.900000000000002 4.442530726371885 0.0
  vertex 17.046848957988082 4.442530726371886 0.0
  vertex 18.900000000000002 4.442530726371885 1.4
 endloop
endfacet
facet normal 4.792801016024318e-16 1.0 -0.0
 outer loop
  vertex 18.900000000000002 4.442530726371885 1.4
  vertex 17.046848957988082 4.442530726371886 0.0
  vertex 18.900000000000002 4.442530726371885 2.8
 endloop
endfacet
facet normal 4.792801016024318e-16 1.0 -0.0
 outer loop
  vertex 18.900000000000002 4.442530726371885 2.8
  vertex 17.046848957988082 4.442530726371886 0.0
  vertex 18.900000000000002 4.442530726371885 3.0
 endloop
endfacet
facet normal 4.792801016024317e-16 1.0 0.0
 outer loop
  vertex 18.900000000000002 4.442530726371885 3.0
  vertex 17.046848957988082 4.442530726371886 0.0
  vertex 17.046848957988082 4.442530726371886 3.0
 endloop
endfacet
facet normal 0.0 -1.0 0.0
 outer loop
  vertex 18.900000000000002 4.442530726371885 0.0
  vertex 19.7 4.442530726371885 0.0
  vertex 18.900000000000002 4.442530726371885 1.4
 endloop
endfacet
facet normal 0.0 1.0 -0.0
 outer loop
  vertex 19.7 4.442530726371885 0.0
  vertex 18.900000000000002 4.442530726371885 1.4
  vertex 19.7 4.442530726371885 1.4
 endloop
endfacet
facet normal 0.0 -1.0 0.0
 outer loop
  vertex 18.900000000000002 4.442530726371885 2.8
  vertex 19.7 4.442530726371885 2.8
  vertex 18.900000000000002 4.442530726371885 3.0
 endloop
endfacet
facet normal 0.0 1.0 -0.0
 outer loop
  vertex 19.7 4.442530726371885 2.8
  vertex 18.900000000000002 4.442530726371885 3.0
  vertex 19.7 4.442530726371885 3.0
 endloop
endfacet
facet normal 0.0 1.0 -0.0
 outer loop
  vertex 18.900000000000002 4.242530726371886 0.0
  vertex 17.24684895798808 4.242530726371886 0.0
  vertex 18.900000000000002 4.242530726371886 1.4
 endloop
endfacet
facet normal 0.0 1.0 -0.0
 outer loop
  vertex 18.900000000000002 4.242530726371886 1.4
  vertex 17.24684895798808 4.242530726371886 0.0
  vertex 18.900000000000002 4.242530726371886 2.8
 endloop
endfacet
facet normal 0.0 1.0 -0.0
 outer loop
  vertex 18.900000000000002 4.242530726371886 2.8
  vertex 17.24684895798808 4.242530726371886 0.0
  vertex 18.900000000000002 4.242530726371886 3.0
 endloop
endfacet
facet normal 0.0 1.0 0.0
 outer loop
  vertex 18.900000000000002 4.242530726371886 3.0
  vertex 17.24684895798808 4.242530726371886 0.0
  vertex 17.24684895798808 4.242530726371886 3.0
 endloop
endfacet
facet normal 0.0 -1.0 0.0
 outer loop
  vertex 18.900000000000002 4.242530726371886 0.0
  vertex 19.7 4.242530726371886 0.0
  vertex 18.900000000000002 4.242530726371886 1.4
 endloop
endfacet
facet normal 0.0 1.0 -0.0
 outer loop
  vertex 19.7 4.242530726371886 0.0
  vertex 18.900000000000002 4.242530726371886 1.4
  vertex 19.7 4.242530726371886 1.4
 endloop
endfacet
facet normal 0.0 -1.0 0.0
 outer loop
  vertex 18.900000000000002 4.242530726371886 2.8
  vertex 19.7 4.242530726371886 2.8
  vertex 18.900000000000002 4.242530726371886 3.0
 endloop
endfacet
facet normal 0.0 1.0 -0.0
 outer loop
  vertex 19.7 4.242530726371886 2.8
  vertex 18.900000000000002 4.242530726371886 3.0
  vertex 19.7 4.242530726371886 3.0
 endloop
endfacet
facet normal 0.0 -1.0 0.0
 outer loop
  vertex 19.7 4.242530726371886 0.0
  vertex 23.34684895798808 4.242530726371886 0.0
  vertex 19.7 4.242530726371886 1.4
 endloop
endfacet
facet normal 0.0 -1.0 0.0
 outer loop
  vertex 19.7 4.242530726371886 1.4
  vertex 23.34684895798808 4.242530726371886 0.0
  vertex 19.7 4.242530726371886 2.8
 endloop
endfacet
facet normal 0.0 -1.0 0.0
 outer loop
  vertex 19.7 4.242530726371886 2.8
  vertex 23.34684895798808 4.242530726371886 0.0
  vertex 19.7 4.242530726371886 3.0
 endloop
endfacet
facet normal 0.0 -1.0 0.0
 outer loop
  vertex 19.7 4.242530726371886 3.0
  vertex 23.34684895798808 4.242530726371886 0.0
  vertex 23.34684895798808 4.242530726371886 3.0
 endloop
endfacet
facet normal -2.435468071016899e-16 -1.0 0.0
 outer loop
  vertex 19.7 4.442530726371885 0.0
  vertex 23.346848957988094 4.442530726371884 0.0
  vertex 19.7 4.442530726371885 3.0
 endloop
endfacet
facet normal 2.435468071016899e-16 1.0 -0.0
 outer loop
  vertex 23.346848957988094 4.442530726371884 0.0
  vertex 19.7 4.442530726371885 3.0
  vertex 23.346848957988094 4.442530726371884 3.0
 endloop
endfacet
facet normal 1.0 2.711281491716173e-14 -0.0
 outer loop
  vertex 23.94684895798809 0.04253072637188597 0.0
  vertex 23.94684895798799 3.8425307263718844 0.0
  vertex 23.94684895798809 0.04253072637188597 3.0
 endloop
endfacet
facet normal -1.0 -2.711281491716173e-14 0.0
 outer loop
  vertex 23.94684895798799 3.8425307263718844 0.0
  vertex 23.94684895798809 0.04253072637188597 3.0
  vertex 23.94684895798799 3.8425307263718844 3.0
 endloop
endfacet
facet normal 0.9961946980917532 0.0871557427475717 -0.0
 outer loop
  vertex 23.946848957987992 3.8425307263718853 0.0
  vertex 23.937733609795327 3.9467196329720355 0.0
  vertex 23.946848957987992 3.8425307263718853 3.0
 endloop
endfacet
facet normal -0.9961946980917532 -0.0871557427475717 0.0
 outer loop
  vertex 23.937733609795327 3.9467196329720355 0.0
  vertex 23.946848957987992 3.8425307263718853 3.0
  vertex 23.937733609795327 3.9467196329720355 3.0
 endloop
endfacet
facet normal 0.9659258262890947 0.25881904510242154 -0.0
 outer loop
  vertex 23.937733609795327 3.9467196329720355 0.0
  vertex 23.91066453045956 4.047742812367273 0.0
  vertex 23.937733609795327 3.9467196329720355 3.0
 endloop
endfacet
facet normal -0.9659258262890947 -0.25881904510242154 0.0
 outer loop
  vertex 23.91066453045956 4.047742812367273 0.0
  vertex 23.937733609795327 3.9467196329720355 3.0
  vertex 23.91066453045956 4.047742812367273 3.0
 endloop
endfacet
facet normal 0.9063077870366745 0.4226182617406466 -0.0
 outer loop
  vertex 23.91066453045956 4.047742812367273 0.0
  vertex 23.866464200258687 4.142530726371867 0.0
  vertex 23.91066453045956 4.047742812367273 3.0
 endloop
endfacet
facet normal -0.9063077870366745 -0.4226182617406466 0.0
 outer loop
  vertex 23.866464200258687 4.142530726371867 0.0
  vertex 23.91066453045956 4.047742812367273 3.0
  vertex 23.866464200258687 4.142530726371867 3.0
 endloop
endfacet
facet normal 0.8191520442890287 0.5735764363509934 -0.0
 outer loop
  vertex 23.866464200258687 4.142530726371867 0.0
  vertex 23.80647562385942 4.228203292183789 0.0
  vertex 23.866464200258687 4.142530726371867 3.0
 endloop
endfacet
facet normal -0.8191520442890287 -0.5735764363509934 0.0
 outer loop
  vertex 23.80647562385942 4.228203292183789 0.0
  vertex 23.866464200258687 4.142530726371867 3.0
  vertex 23.80647562385942 4.228203292183789 3.0
 endloop
endfacet
facet normal 0.7071067811866112 0.7071067811864838 -0.0
 outer loop
  vertex 23.80647562385942 4.228203292183789 0.0
  vertex 23.73252152379997 4.302157392243251 0.0
  vertex 23.80647562385942 4.228203292183789 3.0
 endloop
endfacet
facet normal -0.7071067811866112 -0.7071067811864838 0.0
 outer loop
  vertex 23.73252152379997 4.302157392243251 0.0
  vertex 23.80647562385942 4.228203292183789 3.0
  vertex 23.73252152379997 4.302157392243251 3.0
 endloop
endfacet
facet normal 0.573576436351117 0.8191520442889421 -0.0
 outer loop
  vertex 23.73252152379997 4.302157392243251 0.0
  vertex 23.64684895798806 4.362145968642531 0.0
  vertex 23.73252152379997 4.302157392243251 3.0
 endloop
endfacet
facet normal -0.573576436351117 -0.8191520442889421 0.0
 outer loop
  vertex 23.64684895798806 4.362145968642531 0.0
  vertex 23.73252152379997 4.302157392243251 3.0
  vertex 23.64684895798806 4.362145968642531 3.0
 endloop
endfacet
facet normal 0.42261826174076705 0.9063077870366184 -0.0
 outer loop
  vertex 23.64684895798806 4.362145968642531 0.0
  vertex 23.55206104398347 4.406346298843416 0.0
  vertex 23.64684895798806 4.362145968642531 3.0
 endloop
endfacet
facet normal -0.42261826174076705 -0.9063077870366184 0.0
 outer loop
  vertex 23.55206104398347 4.406346298843416 0.0
  vertex 23.64684895798806 4.362145968642531 3.0
  vertex 23.55206104398347 4.406346298843416 3.0
 endloop
endfacet
facet normal 0.2588190451025964 0.965925826289048 -0.0
 outer loop
  vertex 23.55206104398347 4.406346298843416 0.0
  vertex 23.451037864588237 4.433415378179202 0.0
  vertex 23.55206104398347 4.406346298843416 3.0
 endloop
endfacet
facet normal -0.2588190451025964 -0.965925826289048 0.0
 outer loop
  vertex 23.451037864588237 4.433415378179202 0.0
  vertex 23.55206104398347 4.406346298843416 3.0
  vertex 23.451037864588237 4.433415378179202 3.0
 endloop
endfacet
facet normal 0.0871557427477318 0.9961946980917391 -0.0
 outer loop
  vertex 23.451037864588237 4.433415378179202 0.0
  vertex 23.346848957988087 4.442530726371884 0.0
  vertex 23.451037864588237 4.433415378179202 3.0
 endloop
endfacet
facet normal -0.0871557427477318 -0.9961946980917391 0.0
 outer loop
  vertex 23.346848957988087 4.442530726371884 0.0
  vertex 23.451037864588237 4.433415378179202 3.0
  vertex 23.346848957988087 4.442530726371884 3.0
 endloop
endfacet
facet normal 0.9659258262890679 0.2588190451025227 -0.0
 outer loop
  vertex 23.546848957988093 3.842530726371881 0.0
  vertex 23.52005403874498 3.942530726371881 0.0
  vertex 23.546848957988093 3.842530726371881 3.0
 endloop
endfacet
facet normal -0.9659258262890679 -0.2588190451025227 0.0
 outer loop
  vertex 23.52005403874498 3.942530726371881 0.0
  vertex 23.546848957988093 3.842530726371881 3.0
  vertex 23.52005403874498 3.942530726371881 3.0
 endloop
endfacet
facet normal 0.707106781186541 0.7071067811865539 -0.0
 outer loop
  vertex 23.52005403874498 3.942530726371881 0.0
  vertex 23.44684895798809 4.0157358071287685 0.0
  vertex 23.52005403874498 3.942530726371881 3.0
 endloop
endfacet
facet normal -0.707106781186541 -0.7071067811865539 0.0
 outer loop
  vertex 23.44684895798809 4.0157358071287685 0.0
  vertex 23.52005403874498 3.942530726371881 3.0
  vertex 23.44684895798809 4.0157358071287685 3.0
 endloop
endfacet
facet normal 0.25881904510252796 0.9659258262890662 -0.0
 outer loop
  vertex 23.44684895798809 4.0157358071287685 0.0
  vertex 23.346848957988094 4.042530726371881 0.0
  vertex 23.44684895798809 4.0157358071287685 3.0
 endloop
endfacet
facet normal -0.25881904510252796 -0.9659258262890662 0.0
 outer loop
  vertex 23.346848957988094 4.042530726371881 0.0
  vertex 23.44684895798809 4.0157358071287685 3.0
  vertex 23.346848957988094 4.042530726371881 3.0
 endloop
endfacet
facet normal -0.2588190451025194 0.9659258262890686 0.0
 outer loop
  vertex 23.346848957988094 4.042530726371881 0.0
  vertex 23.246848957988092 4.0157358071287685 0.0
  vertex 23.346848957988094 4.042530726371881 3.0
 endloop
endfacet
facet normal 0.2588190451025194 -0.9659258262890686 0.0
 outer loop
  vertex 23.246848957988092 4.0157358071287685 0.0
  vertex 23.346848957988094 4.042530726371881 3.0
  vertex 23.246848957988092 4.0157358071287685 3.0
 endloop
endfacet
facet normal -0.707106781186541 0.7071067811865539 0.0
 outer loop
  vertex 23.246848957988092 4.0157358071287685 0.0
  vertex 23.173643877231203 3.942530726371881 0.0
  vertex 23.246848957988092 4.0157358071287685 3.0
 endloop
endfacet
facet normal 0.707106781186541 -0.7071067811865539 0.0
 outer loop
  vertex 23.173643877231203 3.942530726371881 0.0
  vertex 23.246848957988092 4.0157358071287685 3.0
  vertex 23.173643877231203 3.942530726371881 3.0
 endloop
endfacet
facet normal -0.9659258262890679 0.2588190451025227 0.0
 outer loop
  vertex 23.173643877231203 3.942530726371881 0.0
  vertex 23.14684895798809 3.842530726371881 0.0
  vertex 23.173643877231203 3.942530726371881 3.0
 endloop
endfacet
facet normal 0.9659258262890679 -0.2588190451025227 0.0
 outer loop
  vertex 23.14684895798809 3.842530726371881 0.0
  vertex 23.173643877231203 3.942530726371881 3.0
  vertex 23.14684895798809 3.842530726371881 3.0
 endloop
endfacet
facet normal -0.9659258262890675 -0.25881904510252374 0.0
 outer loop
  vertex 23.14684895798809 3.842530726371881 0.0
  vertex 23.173643877231203 3.7425307263718812 0.0
  vertex 23.14684895798809 3.842530726371881 3.0
 endloop
endfacet
facet normal 0.9659258262890675 0.25881904510252374 -0.0
 outer loop
  vertex 23.173643877231203 3.7425307263718812 0.0
  vertex 23.14684895798809 3.842530726371881 3.0
  vertex 23.173643877231203 3.7425307263718812 3.0
 endloop
endfacet
facet normal -0.707106781186541 -0.7071067811865539 0.0
 outer loop
  vertex 23.173643877231203 3.7425307263718812 0.0
  vertex 23.246848957988092 3.6693256456149936 0.0
  vertex 23.173643877231203 3.7425307263718812 3.0
 endloop
endfacet
facet normal 0.707106781186541 0.7071067811865539 -0.0
 outer loop
  vertex 23.246848957988092 3.6693256456149936 0.0
  vertex 23.173643877231203 3.7425307263718812 3.0
  vertex 23.246848957988092 3.6693256456149936 3.0
 endloop
endfacet
facet normal -0.2588190451025194 -0.9659258262890686 0.0
 outer loop
  vertex 23.246848957988092 3.6693256456149936 0.0
  vertex 23.346848957988094 3.642530726371881 0.0
  vertex 23.246848957988092 3.6693256456149936 3.0
 endloop
endfacet
facet normal 0.2588190451025194 0.9659258262890686 -0.0
 outer loop
  vertex 23.346848957988094 3.642530726371881 0.0
  vertex 23.246848957988092 3.6693256456149936 3.0
  vertex 23.346848957988094 3.642530726371881 3.0
 endloop
endfacet
facet normal 0.25881904510252796 -0.9659258262890662 0.0
 outer loop
  vertex 23.346848957988094 3.642530726371881 0.0
  vertex 23.44684895798809 3.6693256456149936 0.0
  vertex 23.346848957988094 3.642530726371881 3.0
 endloop
endfacet
facet normal -0.25881904510252796 0.9659258262890662 0.0
 outer loop
  vertex 23.44684895798809 3.6693256456149936 0.0
  vertex 23.346848957988094 3.642530726371881 3.0
  vertex 23.44684895798809 3.6693256456149936 3.0
 endloop
endfacet
facet normal 0.707106781186541 -0.7071067811865539 0.0
 outer loop
  vertex 23.44684895798809 3.6693256456149936 0.0
  vertex 23.52005403874498 3.7425307263718812 0.0
  vertex 23.44684895798809 3.6693256456149936 3.0
 endloop
endfacet
facet normal -0.707106781186541 0.7071067811865539 0.0
 outer loop
  vertex 23.52005403874498 3.7425307263718812 0.0
  vertex 23.44684895798809 3.6693256456149936 3.0
  vertex 23.52005403874498 3.7425307263718812 3.0
 endloop
endfacet
facet normal 0.9659258262890675 -0.25881904510252374 0.0
 outer loop
  vertex 23.52005403874498 3.7425307263718812 0.0
  vertex 23.546848957988093 3.842530726371881 0.0
  vertex 23.52005403874498 3.7425307263718812 3.0
 endloop
endfacet
facet normal -0.9659258262890675 0.25881904510252374 0.0
 outer loop
  vertex 23.546848957988093 3.842530726371881 0.0
  vertex 23.52005403874498 3.7425307263718812 3.0
  vertex 23.546848957988093 3.842530726371881 3.0
 endloop
endfacet
endsolid
